<?xml version="1.0" standalone="yes"?>
<svg width="100" height="101">
<path style="fill:#ffffff; stroke:none;" d="M0 0L0 38L1 38C3.60492 20.6211 20.6341 3.60295 38 1C27.9641 -3.21126 10.9106 0 0 0z"/>
<path style="fill:#718fc8; stroke:none;" d="M33 94L32 99C61.5149 107.294 99.3011 88.6822 100 55L96 55C96 44.3814 95.9421 34.59 90.6867 25C86.7169 17.7558 81.0177 11.437 74 7.06558C66.8606 2.61836 59.4306 0.0414352 51 0.000770569C31.6516 -0.0925446 15.0033 7.35575 5.31327 25C-8.26806 49.7298 4.10097 87.0751 33 94z"/>
<path style="fill:#ffffff; stroke:none;" d="M58 0L58 1C84.7041 5.00266 96 31.2136 96 55L100 55L100 0L58 0z"/>
<path style="fill:#010101; stroke:none;" d="M31 2L32 3L31 2z"/>
<path style="fill:#ffffff; stroke:none;" d="M34 92L35 88C27.264 84.0389 20.7649 79.9249 15.2894 72.9961C-15.2087 34.4039 40.1658 -15.6736 75.9853 18.0934C80.4226 22.2764 84.28 27.3001 86.5355 33C89.2357 39.8237 89.8893 46.806 89 54L94 54C94 44.1149 92.951 34.9285 88.3943 26C84.8275 19.0111 79.7192 13.096 72.9853 9.01466C66.8675 5.30666 60.0825 3.20972 53 2.28935C-0.450371 -4.65657 -17.962 77.0308 34 92z"/>
<path style="fill:#010101; stroke:none;" d="M54 2L55 3L54 2z"/>
<path style="fill:#ffffff; stroke:none;" d="M52 8L53 9L52 8M57 9L58 10L57 9z"/>
<path style="fill:#010101; stroke:none;" d="M52 10L53 11L52 10z"/>
<path style="fill:#ffffff; stroke:none;" d="M61 10L62 11L61 10M32 11L33 12L32 11M38 19L49 11C42.8673 12.1426 38.2421 11.7195 38 19M13 33L13 35C24.2489 34.111 46.0669 23.3693 55 32L56 32C56.1607 25.3536 58.8829 20.8608 65 18L67 31L79 28C76.5289 34.7291 75.8618 40.4002 69 44L72 53L73 53L73 48C81.3658 56.8176 73.4662 71.1766 64.9853 76.892C56.1749 82.8295 47.8007 82.0218 38 80L38 85C49.0877 86.4013 60.4564 86.2116 69.9105 79.2253C92.2643 62.7066 90.2028 26.8825 65 14.2762C55.4939 9.52138 46.5348 12.4781 39.6026 20.6088C37.6683 22.8776 38.1124 26.1833 35.6821 28.1458C30.5045 32.3269 19.3965 32.868 13 33z"/>
<path style="fill:#010101; stroke:none;" d="M39 12L40 13L39 12M17 13L18 14L17 13z"/>
<path style="fill:#ffffff; stroke:none;" d="M28 13L29 14L28 13z"/>
<path style="fill:#01abab; stroke:none;" d="M36 13L36 16L37 16L36 13z"/>
<path style="fill:#ffffff; stroke:none;" d="M67 13L68 14L67 13M26 14L25 16L26 14M16 31L37 26L36 14C27.299 15.5702 19.1673 22.8245 16 31M70 15L71 16L70 15z"/>
<path style="fill:#010101; stroke:none;" d="M45 16L46 17L45 16z"/>
<path style="fill:#ffffff; stroke:none;" d="M22 17L17 23L22 17M74 18L76 20L74 18M62 20L60 23L62 20M77 21L79 23L77 21M59 24L58 33L59 33L59 24z"/>
<path style="fill:#010101; stroke:none;" d="M62 24L63 25L62 24z"/>
<path style="fill:#ffffff; stroke:none;" d="M63 24L62 34C65.6126 31.4451 65.1212 27.5466 63 24M15 25L13 29L14 29L15 25M80 25L81 26L80 25z"/>
<path style="fill:#010101; stroke:none;" d="M64 26L65 27L64 26M81 26L82 27L81 26M57 28L58 29L57 28z"/>
<path style="fill:#ffffff; stroke:none;" d="M82 28L83 29L82 28z"/>
<path style="fill:#010101; stroke:none;" d="M89 28L90 29L89 28z"/>
<path style="fill:#ffffff; stroke:none;" d="M45 30L45 31L55 34L45 30M75 30L76 31L75 30M66 39L67 39L73 31C68.8355 32.4934 67.2523 34.822 66 39M11 32L12 33L11 32M31 44L29 48C37.2522 45.9925 36.9794 39.4741 37 32C31.4858 33.2641 17.7462 33.9699 13.858 37.858C11.5263 40.1898 9.68868 49.6806 14.152 50.5123C20.8625 51.7629 26.078 47.6055 31 44M41 32L41 33C45.2878 36.5484 49.3123 41.8162 55 38L41 32M66 32L67 33L66 32M84 32L85 33L84 32M38 33L38 48L28 51L28 52L38 49L36 68L54 71C61.2291 64.4571 64.0312 57.7525 63 48L62 48C55.4597 55.2149 51.0056 49.433 43 49L49 41L38 33M74 33L69 42C73.0279 40.3273 75.5797 37.4494 74 33M64 34L61 37L64 40L64 34M57 38L55 41L61 44L57 38z"/>
<path style="fill:#808080; stroke:none;" d="M36 40L36 46L37 46L36 40z"/>
<path style="fill:#ffffff; stroke:none;" d="M61 40L63 42L61 40z"/>
<path style="fill:#010101; stroke:none;" d="M93 42L94 43L93 42z"/>
<path style="fill:#ffffff; stroke:none;" d="M50 44L50 45L59 45L50 44M63 43L64 44L63 43z"/>
<path style="fill:#010101; stroke:none;" d="M8 44L9 45L8 44z"/>
<path style="fill:#ffffff; stroke:none;" d="M66 44L67 45L66 44M48 45L47 47L48 45M64 45C65.9452 55.4777 62.8756 60.6491 59 70L60 70C65.3422 62.7733 69.939 53.3359 64 45M67 46L68 47L67 46z"/>
<path style="fill:#010101; stroke:none;" d="M47 47L48 48L47 47z"/>
<path style="fill:#ffffff; stroke:none;" d="M49 47C51.9584 50.352 56.1319 52.4063 59 48L49 47z"/>
<path style="fill:#010101; stroke:none;" d="M34 48L35 49L34 48z"/>
<path style="fill:#ffffff; stroke:none;" d="M68.3333 49.6667L68.6667 50.3333L68.3333 49.6667M11 53L11 54C15.5369 53.997 21.8607 54.7315 25 51L11 53M36 51L28 54C31.654 69.3837 41.1547 63.2843 36 51z"/>
<path style="fill:#010101; stroke:none;" d="M87 51L88 52L87 51z"/>
<path style="fill:#ffffff; stroke:none;" d="M12 56L18 70L29 68L25 55L12 56M90 56L79 80L80 80L81 77L87 78L78 88L78 89C89.6421 84.9625 97.0575 68.5237 98 57L90 56M9 57L10 58L9 57M68 57L69 58L68 57z"/>
<path style="fill:#010101; stroke:none;" d="M84 57L85 58L84 57z"/>
<path style="fill:#ffffff; stroke:none;" d="M0 58L0 101L38 101L38 100L32 99L33 94C14.3624 87.5509 8.82131 73.6993 0 58M72.3333 58.6667L72.6667 59.3333L72.3333 58.6667M10 61L11 62L10 61M69 61L70 62L69 61z"/>
<path style="fill:#010101; stroke:none;" d="M97 61L98 62L97 61z"/>
<path style="fill:#ffffff; stroke:none;" d="M99 61C95.725 80.02 76.8735 97.2127 58 100L58 101L100 101C100 89.566 103.411 71.512 99 61M28 62L38 71L38 70L28 62M71 62L72 63L71 62M68 63L65 69L66 69L68 63M73 63L74 64L73 63z"/>
<path style="fill:#010101; stroke:none;" d="M84 63L85 64L84 63M63 65L64 66L63 65z"/>
<path style="fill:#ffffff; stroke:none;" d="M72 65L59 77L59 78C64.6777 76.3136 71.9866 71.568 72 65M13 67L14 68L13 67M82 67L83 68L82 67M14 69L16 71L14 69M19 72L19 73L32 70L19 72M81 69L80 71L81 69M57 70L54 72L54 73L58 71L57 70M63 70L58 73L58 74L64 71L63 70M39 71L39 72L42 72L39 71M16 72L18 74L16 72M23 75L37 83L32 73L37 74C32.7622 70.8399 27.5433 73.2609 23 75M38.3333 73.6667L38.6667 74.3333L38.3333 73.6667M45 74L45 75L50 74L45 74M78 73L72 80L78 73z"/>
<path style="fill:#010101; stroke:none;" d="M58 77L59 78L58 77z"/>
<path style="fill:#ffffff; stroke:none;" d="M22 78L24 80L22 78M56.6667 78.3333L57.3333 78.6667L56.6667 78.3333M44.6667 79.3333L45.3333 79.6667L44.6667 79.3333M50 79L50 80L55 80L50 79z"/>
<path style="fill:#010101; stroke:none;" d="M40 80L41 81L40 80z"/>
<path style="fill:#ffffff; stroke:none;" d="M77 80L75 81L75 82L77 80M69 81L70 82L69 81M29 83L30 84L29 83M66 83L67 84L66 83M73 83C62.203 90.1205 52.5929 91 40 91L40 92L57 94L58 94C60.4218 90.2066 65.6286 88.7896 70 89L73 83z"/>
<path style="fill:#010101; stroke:none;" d="M27 84L28 85L27 84z"/>
<path style="fill:#ffffff; stroke:none;" d="M64 84L65 85L64 84z"/>
<path style="fill:#010101; stroke:none;" d="M61 85L62 86L61 85z"/>
<path style="fill:#ffffff; stroke:none;" d="M37 86L38 87L37 86M58 86L59 87L58 86M53 87L54 88L53 87z"/>
<path style="fill:#010101; stroke:none;" d="M60 89L61 90L60 89z"/>
<path style="fill:#ffffff; stroke:none;" d="M36 90L34 98L45 99L45 98L38 98L39 91L36 90M71 94L78 91L71 94M66 95L66 96L70 95L66 95M51 95L50 99L53 99L53 98L51 95M59 97L59 98L65 97L59 97M54 98L54 99L58 99L54 98z"/>
<path style="fill:#010101; stroke:none;" d="M62 97L63 98L62 97z"/>
<path style="fill:#ffffff; stroke:none;" d="M47 98L47 100L49 100L47 98z"/>
<path style="fill:#010101; stroke:none;" d="M58 98L59 99L58 98M46 99L47 100L46 99M49 99L50 100L49 99z"/>
</svg>
