<?xml version="1.0" standalone="yes"?>
<svg width="100" height="100">
<path style="fill:#ffffff; stroke:none;" d="M0 0L0 100L100 100L100 0L0 0z"/>
<path style="fill:#010101; stroke:none;" d="M15 26L16 27L15 26z"/>
<path style="fill:#718fc8; stroke:none;" d="M31 60L31 41L15 41C15.0147 45.1504 14.6134 48.5441 19 50C13.3245 50.0895 10.4419 41.3117 15.3904 37.7508C18.9085 35.2192 24.5562 42.9827 29.3812 38.9722C37.1189 32.5407 19.2764 26.2849 15 26.6806C1.41047 27.938 -4.27926 47.2717 5.22454 56.7755C11.9235 63.4744 22.6266 59.8512 31 60z"/>
<path style="fill:#010101; stroke:none;" d="M18 26L19 27L18 26z"/>
<path style="fill:#718fc8; stroke:none;" d="M35 27L35 60L44 60L44 47L45 47C46.3076 63.009 56.9396 62.301 59 47L60 47L60 60L71 60L71 27L56 27L53 40C48.5872 28.3031 47.9359 27 35 27M74 27L74 60L86 60L86 49L96 49L96 40L86 40L86 36L99 36L99 27L74 27z"/>
<path style="fill:#010101; stroke:none;" d="M16 28L17 29L16 28M49 28L50 29L49 28z"/>
<path style="fill:#ffffff; stroke:none;" d="M25 55L29 58L29 43L17 43L17 47L22 47C19.2303 64.3671 1.63356 36.2309 16.0903 34.3264C19.9416 33.819 24.4987 37.9467 29 38C28.108 35.3837 27.1179 33.2378 24.8912 31.4321C4.32707 14.7563 -7.62474 61.8516 17 58.7323C19.9772 58.3551 22.4854 56.4913 25 55M37 29L37 58L42 58L42 33L43 33L49 58C58.2621 57.2788 58.8979 40.4626 61 33L62 33L62 58L69 58L69 29C55.8553 29 56.2609 35.509 53 47L48 29L37 29M76 29L76 58L84 58L84 47L94 47L94 42L84 42L84 34L97 34L97 29L76 29z"/>
<path style="fill:#010101; stroke:none;" d="M25 31L26 32L25 31M26 32L27 33L26 32M17 33L18 34L17 33M52 39L53 40L52 39M15 49L16 50L15 49M56 49L57 50L56 49z"/>
<path style="fill:#ffffff; stroke:none;" d="M15 50L15 51L19 51L15 50z"/>
<path style="fill:#010101; stroke:none;" d="M22 56L23 57L22 56M12 58L13 59L12 58M47 58L48 59L47 58z"/>
<path style="fill:#718fc8; stroke:none;" d="M14 71L15 71C16.5556 72.8129 17.4444 72.8129 19 71L20 71C22.3472 73.686 26.6528 73.686 29 71L30 71C32.8025 74.7085 49.8774 74.6523 53 71L54 71L66 73.0008L99 73L96 70L96 65L88 67L87 67C82.1887 61.494 54.7119 62.9582 53 71L52 71L51 65L47 67L46 67C42.7298 63.2783 21.0674 63.4898 18 67C15.9563 65.5686 14.5387 65.0881 11.9838 65.0424C10.3409 65.0131 8.64138 65.0647 7.00463 65.2099C-5.39507 66.3094 7.94918 79.0789 14 71z"/>
<path style="fill:#018080; stroke:none;" d="M9 67L9 71L10 71L9 67z"/>
<path style="fill:#ffffff; stroke:none;" d="M27 67L28 68L27 67M40 67L41 68L40 67M48 67L49 68L48 67M56 67L57 68L56 67M82 67L83 68L82 67M89 67L90 68L89 67M6 70L7 71L6 70z"/>
<path style="fill:#010101; stroke:none;" d="M84 70L85 71L84 70z"/>
<path style="fill:#ffffff; stroke:none;" d="M10 71L11 72L10 71z"/>
<path style="fill:#010101; stroke:none;" d="M83 72L84 73L83 72z"/>
</svg>
