<svg id="Camada_1" data-name="Camada 1" xmlns="http://www.w3.org/2000/svg" viewBox="0 0 228.77 102.19"><defs><style>.cls-1{fill:#5C7AB3;}.cls-2{fill:#5C7AB3;}</style></defs><path class="cls-1" d="M66.4,42.54c0,6.84-4,13.49-13.25,13.49H43.57v8.41a6.67,6.67,0,0,1-6.67,6.67h-.78V31.93A2.89,2.89,0,0,1,39,29.05H53.15c9.28,0,13.25,6.77,13.25,13.49m-7.45,0c0-3.3-1.71-6.84-6-6.84h-9.4V49.32h9.22C57.18,49.32,59,46,59,42.54"/><path class="cls-1" d="M59,68.69h0A5.27,5.27,0,0,1,64.21,64h0c4.33,0,6-3.11,6-6.84V36.5a7.44,7.44,0,0,1,7.45-7.45v28.1c0,7.51-3.6,14-13.43,14a21.68,21.68,0,0,1-3.88-.52A1.78,1.78,0,0,1,59,68.69"/><path class="cls-2" d="M110.83,50.62h-22c.79,4,3.84,6,8.06,6a10.21,10.21,0,0,0,6.25-2,2.84,2.84,0,0,1,3.48,0,3.22,3.22,0,0,1,.07,5.05A16.18,16.18,0,0,1,96.48,63c-8.55,0-15-6-15-14.9,0-9.09,6.84-14.83,15-14.83S111,39,111,47.87a24.38,24.38,0,0,1-.18,2.75m-6.9-4.95c-.43-3.9-3.42-6.16-7.39-6.16s-6.9,1.83-7.75,6.16Z"/><path class="cls-1" d="M132.39,32.36a3,3,0,0,1-3.15,3.32h-3.19v4.24h-1V29.05h4.27a3,3,0,0,1,3.11,3.31m-1,0A2.07,2.07,0,0,0,129.27,30h-3.22V34.7h3.14a2.09,2.09,0,0,0,2.16-2.34"/><path class="cls-1" d="M138.69,32.62l-.19,1a2.6,2.6,0,0,0-1-.21c-1.75,0-2.28,2-2.28,3.78v2.77h-1V32.55h1v1.8a2.35,2.35,0,0,1,2.3-2,2.81,2.81,0,0,1,1.17.22"/><path class="cls-1" d="M139.22,36.21a3.86,3.86,0,0,1,7.72,0,3.86,3.86,0,1,1-7.72,0m6.71,0a2.85,2.85,0,1,0-2.86,2.91,2.81,2.81,0,0,0,2.86-2.91"/><path class="cls-1" d="M148.44,36.23a3.76,3.76,0,0,1,3.9-3.83,3.88,3.88,0,0,1,2.65,1l-.63.69a2.94,2.94,0,0,0-2-.74,2.87,2.87,0,1,0,0,5.74,3,3,0,0,0,2-.72l.63.67a3.92,3.92,0,0,1-6.55-2.82"/><path class="cls-1" d="M163.49,36.66h-6.34a2.61,2.61,0,0,0,2.76,2.46,2.75,2.75,0,0,0,2.4-1.26l.87.37a3.8,3.8,0,0,1-7.06-2,3.65,3.65,0,0,1,3.76-3.82,3.54,3.54,0,0,1,3.63,3.82,3.31,3.31,0,0,1,0,.44m-1-.87a2.51,2.51,0,0,0-2.63-2.43,2.58,2.58,0,0,0-2.72,2.43Z"/><path class="cls-1" d="M164.88,37.93h.93a1.63,1.63,0,0,0,1.75,1.25c1.06,0,1.71-.52,1.71-1.26s-.41-1-1.17-1.18L167,36.48c-1-.25-1.88-.79-1.88-2A2.46,2.46,0,0,1,170,34.4h-1a1.32,1.32,0,0,0-1.42-1.1c-.85,0-1.44.48-1.44,1.18s.6,1,1.14,1.12l1.09.27a2.08,2.08,0,0,1,1.88,2.06c0,1.31-1.19,2.15-2.72,2.15a2.5,2.5,0,0,1-2.68-2.15"/><path class="cls-1" d="M171.65,37.93h.93a1.63,1.63,0,0,0,1.75,1.25c1.06,0,1.71-.52,1.71-1.26s-.41-1-1.17-1.18l-1.06-.26c-1-.25-1.88-.79-1.88-2a2.46,2.46,0,0,1,4.85-.06h-1a1.33,1.33,0,0,0-1.42-1.1c-.85,0-1.44.48-1.44,1.18s.6,1,1.14,1.12l1.09.27a2.08,2.08,0,0,1,1.88,2.06c0,1.31-1.19,2.15-2.72,2.15a2.5,2.5,0,0,1-2.68-2.15"/><path class="cls-1" d="M178.51,36.21a3.86,3.86,0,0,1,7.72,0,3.86,3.86,0,1,1-7.72,0m6.71,0a2.85,2.85,0,1,0-2.86,2.91,2.81,2.81,0,0,0,2.86-2.91"/><path class="cls-1" d="M122,59.27l.11-1a4.13,4.13,0,0,0,.86.1c1.61,0,2.21-1.11,2.21-2.45V44.83h1.05V55.92c0,1.88-.89,3.46-3.26,3.46a8.74,8.74,0,0,1-1-.11"/><path class="cls-1" d="M135.48,48.33V55.7h-1V54.41a2.74,2.74,0,0,1-2.55,1.45,2.89,2.89,0,0,1-3-3.24V48.33h1v4.25A2.06,2.06,0,0,0,132,54.86a2.29,2.29,0,0,0,2.44-2.44V48.33Z"/><path class="cls-1" d="M145.19,44.18V55.7h-1V54.27a3.3,3.3,0,0,1-2.94,1.59,3.84,3.84,0,0,1,0-7.68,3.3,3.3,0,0,1,2.94,1.57V44.18Zm-1,7.86a2.84,2.84,0,1,0-2.86,2.86A2.84,2.84,0,0,0,144.18,52"/><path class="cls-1" d="M147.44,45.62a.75.75,0,0,1,.78-.73.72.72,0,1,1-.78.73m.27,2.71h1V55.7h-1Z"/><path class="cls-1" d="M150.74,52a3.77,3.77,0,0,1,3.9-3.84,3.89,3.89,0,0,1,2.65,1l-.63.7a2.94,2.94,0,0,0-2-.74,2.87,2.87,0,1,0,0,5.74,2.93,2.93,0,0,0,2-.73l.63.68A3.92,3.92,0,0,1,150.74,52"/><path class="cls-1" d="M158.88,45.62a.75.75,0,0,1,.78-.73.72.72,0,1,1,0,1.44.75.75,0,0,1-.78-.71m.27,2.71h1V55.7h-1Z"/><path class="cls-1" d="M169.87,48.33V55.7h-1V54.27a3.31,3.31,0,0,1-2.94,1.59,3.84,3.84,0,0,1,0-7.68,3.31,3.31,0,0,1,2.94,1.57V48.33Zm-1,3.71a2.84,2.84,0,0,0-2.86-2.9A2.8,2.8,0,0,0,163.19,52a2.84,2.84,0,1,0,5.67,0"/><rect class="cls-1" x="172.39" y="44.18" width="1.01" height="11.52"/><polygon class="cls-1" points="131.38 70.5 131.38 71.48 125.01 71.48 125.01 60.61 131.21 60.61 131.21 61.59 126.03 61.59 126.03 65.66 130.54 65.66 130.54 66.64 126.03 66.64 126.03 70.5 131.38 70.5"/><rect class="cls-1" x="133.46" y="59.96" width="1.01" height="11.52"/><path class="cls-1" d="M143.86,68.21h-6.34a2.61,2.61,0,0,0,2.76,2.46,2.73,2.73,0,0,0,2.4-1.26l.87.38a3.82,3.82,0,1,1-3.3-5.84,3.54,3.54,0,0,1,3.63,3.82,3.24,3.24,0,0,1,0,.44m-1-.86a2.51,2.51,0,0,0-2.63-2.43,2.57,2.57,0,0,0-2.71,2.43Z"/><polygon class="cls-1" points="148.93 64.98 147.24 64.98 147.24 71.48 146.25 71.48 146.25 64.98 144.9 64.98 144.9 64.11 146.25 64.11 146.25 61.18 147.24 61.18 147.24 64.11 148.93 64.11 148.93 64.98"/><path class="cls-1" d="M155,64.17l-.19,1a2.6,2.6,0,0,0-1-.21c-1.75,0-2.29,2-2.29,3.77v2.78h-1V64.11h1v1.8a2.37,2.37,0,0,1,2.31-2,3,3,0,0,1,1.17.22"/><path class="cls-1" d="M155.52,67.77a3.86,3.86,0,0,1,7.72,0,3.86,3.86,0,1,1-7.72,0m6.71,0a2.85,2.85,0,1,0-2.86,2.9,2.81,2.81,0,0,0,2.86-2.9m-3.39-7.16h1.09L161.69,63h-.93l-1.39-1.64L158,63h-.93Z"/><path class="cls-1" d="M171.81,67.19v4.29h-1V67.24A2.09,2.09,0,0,0,168.71,65a2.31,2.31,0,0,0-2.46,2.44v4.09h-1V64.11h1v1.33A2.74,2.74,0,0,1,168.81,64a2.92,2.92,0,0,1,3,3.24"/><path class="cls-1" d="M174,61.4a.75.75,0,0,1,.78-.73.72.72,0,1,1,0,1.44.74.74,0,0,1-.78-.71m.27,2.71h1v7.37h-1Z"/><path class="cls-1" d="M177.25,67.79a3.77,3.77,0,0,1,3.9-3.84,3.91,3.91,0,0,1,2.65,1l-.63.7a2.94,2.94,0,0,0-2-.74,2.87,2.87,0,1,0,0,5.74,2.93,2.93,0,0,0,2-.73l.63.68a3.82,3.82,0,0,1-2.65,1,3.76,3.76,0,0,1-3.9-3.83"/><path class="cls-1" d="M184.93,67.77a3.86,3.86,0,0,1,7.72,0,3.86,3.86,0,1,1-7.72,0m6.71,0a2.85,2.85,0,1,0-2.86,2.9,2.81,2.81,0,0,0,2.86-2.9"/></svg>