<?xml version="1.0" standalone="yes"?>
<svg width="80" height="80">
<path style="fill:#ffffff; stroke:none;" d="M0 0L0 59L1 59C6.44761 50.1503 27.1258 47.278 32 58L29 54L5 54L2 64C10.1313 65.5096 31.6238 69.3127 32 58L34 58C32.9438 71.9703 8.93471 67.9703 0 64L0 80L80 80L80 64C64.528 70.736 53.4946 40.6332 36 47C37.2006 60.5055 8.74494 40.1051 21 37L21 30L32 21L33 20L32 15C38.3253 13.4795 43.7709 17.4184 48 22L35 15L23 31C23.3427 35.5279 22.1862 37.3473 18 39C21.0359 45.2264 28.2567 49.7831 35 51C35.2129 43.9821 43.0824 40.2487 47 47L72 61L72 65L78 64L76 58C69.3725 56.852 54.9987 47.4953 53 41C42.7208 39.3618 47.7008 30.6854 51 25L48 22L52 30L48 30L49 39L58.1289 45.8179L79 61L80 61L80 0L0 0z"/>
<path style="fill:#5675af; stroke:none;" d="M34 14L48 22C45.2406 17.4843 39.3048 13.8015 34 14z"/>
<path style="fill:#5675b0; stroke:none;" d="M32 15L33 20L21 30L21 37C5.52248 36.7498 39.8709 63.6146 36 47C51.9104 42.844 59.2008 61.9645 72.2593 66.0841C77.1564 67.629 81.0592 62.5584 78.0718 58.3387C75.9171 55.2954 69.4281 53.0928 66 52L78 64L72 65L72 61L47 47C44.1798 38.8977 34.7725 43.7649 35 51C28.1833 49.0317 22.1951 44.6991 18 39C22.742 38.017 23.8654 35.6742 23 31C28.296 27.6044 34.4646 21.4272 34 15L32 15z"/>
<path style="fill:#010101; stroke:none;" d="M34 15L35 16L34 15M29 20L30 21L29 20z"/>
<path style="fill:#5775af; stroke:none;" d="M48 22L51 25C46.6854 30.3301 42.8134 40.2069 53 41C53.999 46.9053 60.6892 50.242 66 52C63.0934 47.434 54.3349 39.8471 49 39L48 30L52 30C51.8746 26.1224 51.4984 23.9282 48 22z"/>
<path style="fill:#010101; stroke:none;" d="M52 25L53 26L52 25M26 27L27 28L26 27M46 30L47 31L46 30M26 47L27 48L26 47z"/>
<path style="fill:#010180; stroke:none;" d="M66 51L67 52L66 51z"/>
<path style="fill:#5776b0; stroke:none;" d="M33 58L32 58C31.113 69.4813 10.1118 65.0252 2 64L5 54L29 54L32 58C29.5441 49.9999 13.2017 49.7401 6.12963 52.5995C2.80399 53.9442 -0.678461 59.226 0.647377 62.8596C1.95482 66.4428 6.77574 66.8128 10 66.9606C17.4018 67.3 36.1925 70.0979 33 58z"/>
<path style="fill:#010101; stroke:none;" d="M33 58L34 59L33 58z"/>
<path style="fill:#010180; stroke:none;" d="M74 58L75 59L74 58z"/>
<path style="fill:#010101; stroke:none;" d="M79 61L80 62L79 61z"/>
</svg>
